<svg xmlns="http://www.w3.org/2000/svg" viewBox="0 0 160 160" fill="none">
  <circle cx="80" cy="80" r="72" fill="#F3E0C8"/>
  <ellipse cx="80" cy="120" rx="40" ry="10" fill="#E8D2B0"/>
  <path d="M42 90c0-18 16-32 38-32s38 14 38 32v16c0 4-4 8-10 8H52c-6 0-10-4-10-8V90Z" fill="#F3E0C8" stroke="#2A2218" stroke-width="2.5"/>
  <path d="M46 92c4-16 16-28 34-28s30 12 34 28" stroke="#2A2218" stroke-width="2.2" stroke-linecap="round"/>
  <ellipse cx="66" cy="94" rx="12" ry="8" fill="#FFFDF9" stroke="#2A2218" stroke-width="2"/>
  <ellipse cx="94" cy="94" rx="12" ry="8" fill="#FFFDF9" stroke="#2A2218" stroke-width="2"/>
  <rect x="76" y="52" width="8" height="12" rx="3" fill="#8B5A32" stroke="#2A2218" stroke-width="2"/>
  <path d="M128 40l3 8 8 3-8 3-3 8-3-8-8-3 8-3 3-8Z" fill="#C9A6F0"/>
</svg>
