<svg xmlns="http://www.w3.org/2000/svg" viewBox="0 0 160 160" fill="none">
  <circle cx="80" cy="80" r="72" fill="#D5EFE6"/>
  <path d="M28 106c22-10 82-10 104 0 4 2 4 8 0 10-22 10-82 10-104 0-4-2-4-8 0-10Z" fill="#5FBEA4" stroke="#3A322C" stroke-width="2.5"/>
  <rect x="40" y="86" width="52" height="10" rx="3" fill="#C9B8A8" stroke="#3A322C" stroke-width="2"/>
  <rect x="84" y="76" width="8" height="20" rx="2" fill="#7A6C60" stroke="#3A322C" stroke-width="2"/>
  <path d="M88 76l44-30" stroke="#3A322C" stroke-width="3" stroke-linecap="round"/>
  <ellipse cx="118" cy="114" rx="16" ry="9" fill="#D6454A" stroke="#3A322C" stroke-width="2.5"/>
  <path d="M104 114l-10-7v14l10-7Z" fill="#F8D4D2" stroke="#3A322C" stroke-width="2"/>
  <circle cx="124" cy="112" r="1.8" fill="#3A322C"/>
  <path d="M24 44l3 8 8 3-8 3-3 8-3-8-8-3 8-3 3-8Z" fill="#C4A3ED"/>
</svg>
